<svg width="24" height="24" viewBox="0 0 24 24" fill="none" xmlns="http://www.w3.org/2000/svg">
<path d="M2.5 12C2.5 6.75614 6.75614 2.5 12 2.5C17.2439 2.5 21.5 6.75614 21.5 12C21.5 17.2439 17.2439 21.5 12 21.5C6.75614 21.5 2.5 17.2439 2.5 12ZM10.75 8C10.75 8.68614 11.3139 9.25 12 9.25C13.5139 9.25 14.75 10.4861 14.75 12C14.75 13.5139 13.5139 14.75 12 14.75C11.3139 14.75 10.75 15.3139 10.75 16C10.75 16.6861 11.3139 17.25 12 17.25C14.8961 17.25 17.25 14.8961 17.25 12C17.25 9.10386 14.8961 6.75 12 6.75C11.3139 6.75 10.75 7.31386 10.75 8ZM3.75 12C3.75 16.5461 7.45386 20.25 12 20.25C16.5461 20.25 20.25 16.5461 20.25 12C20.25 7.45386 16.5461 3.75 12 3.75C11.3139 3.75 10.75 4.31386 10.75 5C10.75 5.68614 11.3139 6.25 12 6.25C15.1739 6.25 17.75 8.82614 17.75 12C17.75 15.1739 15.1739 17.75 12 17.75C8.82614 17.75 6.25 15.1739 6.25 12C6.25 11.3139 5.68614 10.75 5 10.75C4.31386 10.75 3.75 11.3139 3.75 12Z" fill="white" stroke="white"/>
</svg>
