<svg width="32" height="32" viewBox="0 0 32 32" fill="none" xmlns="http://www.w3.org/2000/svg">
<path fill-rule="evenodd" clip-rule="evenodd" d="M21.3333 13.3333H10.6666C9.95938 13.3333 9.28111 13.6143 8.78101 14.1144C8.28091 14.6145 7.99996 15.2928 7.99996 16C7.99996 16.7072 8.28091 17.3855 8.78101 17.8856C9.28111 18.3857 9.95938 18.6667 10.6666 18.6667H21.3333C22.0405 18.6667 22.7188 18.3857 23.2189 17.8856C23.719 17.3855 24 16.7072 24 16C24 15.2928 23.719 14.6145 23.2189 14.1144C22.7188 13.6143 22.0405 13.3333 21.3333 13.3333ZM10.6666 8C8.54489 8 6.51006 8.84285 5.00977 10.3431C3.50948 11.8434 2.66663 13.8783 2.66663 16C2.66663 18.1217 3.50948 20.1566 5.00977 21.6569C6.51006 23.1571 8.54489 24 10.6666 24H21.3333C23.455 24 25.4899 23.1571 26.9901 21.6569C28.4904 20.1566 29.3333 18.1217 29.3333 16C29.3333 13.8783 28.4904 11.8434 26.9901 10.3431C25.4899 8.84285 23.455 8 21.3333 8H10.6666Z" fill="#A7ACB8"/>
</svg>
