<svg width="32" height="32" viewBox="0 0 32 32" fill="none" xmlns="http://www.w3.org/2000/svg">
<path d="M6.03994 25.5851V17.9604V16.1012L16.02 8L26 16.1012V25.1085C26 27.7772 24.3367 28.1266 23.505 27.9678H8.53494C6.13974 27.9678 5.8736 26.3793 6.03994 25.5851Z" fill="url(#paint0_linear_190_1002)"/>
<path d="M28.662 13.2153L17.9862 3.78661C16.8508 2.78663 15.1491 2.78663 14.0136 3.78661L3.33783 13.2153C2.60597 14.1394 3.6512 15.384 4.66204 14.7144L15.3378 5.28561C15.7164 4.95261 16.2834 4.95261 16.662 5.28561L24.9999 12.65V25.9648C24.9999 26.5171 24.5522 26.9648 23.9999 26.9648H20.9999V15.9648C20.9999 15.4125 20.5522 14.9648 19.9999 14.9648H11.9999C11.4477 14.9648 10.9999 15.4125 10.9999 15.9648V23.9648C10.9999 25.2981 12.9999 25.2981 12.9999 23.9648V16.9648H18.9999V26.9648H7.99994C7.44765 26.9648 6.99994 26.5171 6.99994 25.9648V17.3662C6.99994 16.0329 4.99994 16.0329 4.99994 17.3662V25.9648C4.99769 26.7609 5.31419 27.5247 5.87884 28.0859C6.44259 28.6467 7.20477 28.9625 7.99994 28.9648H23.9999C25.6566 28.9644 26.9995 27.6215 26.9999 25.9648V14.416L27.3378 14.7144C28.3372 15.5972 29.6614 14.0981 28.662 13.2153V13.2153Z" fill="current"/>
<defs>
<linearGradient id="paint0_linear_190_1002" x1="16" y1="8" x2="16" y2="28" gradientUnits="userSpaceOnUse">
<stop stop-color="#FED0E4" stop-opacity="0.6"/>
<stop offset="0.770833" stop-color="#FED0E4" stop-opacity="0"/>
</linearGradient>
</defs>
</svg>
