<svg width="20" height="20" viewBox="0 0 20 20" fill="none" xmlns="http://www.w3.org/2000/svg">
<path d="M9.99997 6.87578C8.27966 6.87578 6.87576 8.27969 6.87576 10C6.87576 11.7203 8.27966 13.1242 9.99997 13.1242C11.7203 13.1242 13.1242 11.7203 13.1242 10C13.1242 8.27969 11.7203 6.87578 9.99997 6.87578ZM19.3703 10C19.3703 8.70625 19.382 7.42422 19.3093 6.13282C19.2367 4.63282 18.8945 3.30157 17.7976 2.2047C16.6984 1.10548 15.3695 0.765638 13.8695 0.692982C12.5757 0.620326 11.2937 0.632045 10.0023 0.632045C8.70856 0.632045 7.42654 0.620326 6.13513 0.692982C4.63514 0.765638 3.30389 1.10783 2.20702 2.2047C1.1078 3.30391 0.767958 4.63282 0.695301 6.13282C0.622645 7.42656 0.634364 8.70859 0.634364 10C0.634364 11.2914 0.622645 12.5758 0.695301 13.8672C0.767958 15.3672 1.11014 16.6984 2.20702 17.7953C3.30623 18.8945 4.63514 19.2344 6.13513 19.307C7.42888 19.3797 8.71091 19.3679 10.0023 19.3679C11.2961 19.3679 12.5781 19.3797 13.8695 19.307C15.3695 19.2344 16.7007 18.8922 17.7976 17.7953C18.8968 16.6961 19.2367 15.3672 19.3093 13.8672C19.3843 12.5758 19.3703 11.2937 19.3703 10ZM9.99997 14.807C7.33982 14.807 5.19295 12.6601 5.19295 10C5.19295 7.33984 7.33982 5.19297 9.99997 5.19297C12.6601 5.19297 14.807 7.33984 14.807 10C14.807 12.6601 12.6601 14.807 9.99997 14.807ZM15.0039 6.11875C14.3828 6.11875 13.8812 5.61719 13.8812 4.9961C13.8812 4.37501 14.3828 3.87344 15.0039 3.87344C15.625 3.87344 16.1265 4.37501 16.1265 4.9961C16.1267 5.14358 16.0978 5.28965 16.0414 5.42594C15.9851 5.56223 15.9024 5.68606 15.7981 5.79035C15.6938 5.89463 15.57 5.97732 15.4337 6.03367C15.2974 6.09003 15.1513 6.11894 15.0039 6.11875Z" fill="current"/>
</svg>
