<svg width="32" height="32" viewBox="0 0 32 32" fill="none" xmlns="http://www.w3.org/2000/svg">
<path d="M4 28L5.5 22H26.5L28 28H4Z" fill="url(#paint0_linear_190_133)"/>
<path d="M10.7463 17L15.9852 23C16.4218 22.8333 17.9062 21.6 20.351 18C23.5 14.5 23.1455 12.8333 23 12C23 12 21.6608 7 15.9852 7C10.3097 7 9 12 9 13C9 13.8 10.1642 16 10.7463 17Z" fill="url(#paint1_linear_190_133)"/>
<path d="M12.2969 21.0255L12.9169 21.6461C13.0093 21.7409 13.1196 21.8164 13.2414 21.8682C13.3633 21.92 13.4942 21.9472 13.6265 21.948C13.7589 21.9488 13.8902 21.9234 14.0126 21.8731C14.1351 21.8228 14.2464 21.7487 14.34 21.6551C14.4336 21.5615 14.5077 21.4502 14.558 21.3278C14.6082 21.2053 14.6337 21.0741 14.6329 20.9417C14.632 20.8093 14.6049 20.6784 14.5531 20.5566C14.5013 20.4347 14.4258 20.3244 14.331 20.232L13.711 19.6114C12.3945 18.294 11.125 17.024 11.05 16.9501C10.0711 15.9711 9.40445 14.7238 9.13442 13.366C8.86438 12.0081 9.00304 10.6007 9.53288 9.32165C10.0627 8.04261 10.9599 6.9494 12.111 6.18026C13.2622 5.41113 14.6155 5.0006 16 5.0006C17.3844 5.0006 18.7378 5.41113 19.8889 6.18026C21.04 6.9494 21.9372 8.04261 22.4671 9.32165C22.9969 10.6007 23.1356 12.0081 22.8655 13.366C22.5955 14.7238 21.9289 15.9711 20.95 16.9501L15.293 22.607C15.1978 22.6993 15.1219 22.8097 15.0698 22.9316C15.0176 23.0535 14.9903 23.1846 14.9892 23.3172C14.9882 23.4498 15.0136 23.5812 15.0639 23.7039C15.1141 23.8266 15.1883 23.9381 15.2821 24.0319C15.3758 24.1257 15.4873 24.1998 15.61 24.2501C15.7327 24.3004 15.8642 24.3258 15.9968 24.3248C16.1294 24.3238 16.2605 24.2964 16.3824 24.2443C16.5043 24.1921 16.6146 24.1163 16.707 24.0211L22.3643 18.3644C23.6231 17.1054 24.4802 15.5012 24.8272 13.755C25.1742 12.0087 24.9954 10.1987 24.3135 8.55409C23.6317 6.90943 22.4773 5.50397 20.9965 4.51549C19.5157 3.52702 17.775 2.99996 15.9946 3.00098C14.2142 3.002 12.4741 3.53106 10.9944 4.52123C9.51476 5.5114 8.36202 6.91819 7.68203 8.56363C7.00204 10.2091 6.82537 12.0192 7.17435 13.7651C7.52333 15.511 8.38229 17.1141 9.64256 18.3717C9.72556 18.4522 10.9873 19.7149 12.2969 21.0255Z" fill="current"/>
<path d="M28.9699 27.7573L26.9699 19.7573C26.9158 19.541 26.7909 19.349 26.6152 19.2118C26.4394 19.0746 26.2229 19 25.9999 19H23.9999C23.7347 19 23.4803 19.1054 23.2928 19.2929C23.1053 19.4804 22.9999 19.7348 22.9999 20C22.9999 20.2652 23.1053 20.5196 23.2928 20.7071C23.4803 20.8946 23.7347 21 23.9999 21H25.2187L26.7187 27H5.2812L6.7812 21H7.9999C8.26512 21 8.51947 20.8946 8.70701 20.7071C8.89454 20.5196 8.9999 20.2652 8.9999 20C8.9999 19.7348 8.89454 19.4804 8.70701 19.2929C8.51947 19.1054 8.26512 19 7.9999 19H5.9999C5.77693 19 5.56036 19.0746 5.38461 19.2118C5.20887 19.349 5.08401 19.541 5.0299 19.7573L3.0299 27.7573C2.99301 27.9047 2.99022 28.0586 3.02172 28.2073C3.05323 28.356 3.1182 28.4955 3.21171 28.6153C3.30522 28.7351 3.42481 28.832 3.56138 28.8987C3.69795 28.9653 3.84793 29 3.9999 29H27.9999C28.1519 29 28.3018 28.9653 28.4384 28.8987C28.575 28.832 28.6946 28.7351 28.7881 28.6153C28.8816 28.4955 28.9466 28.356 28.9781 28.2073C29.0096 28.0586 29.0068 27.9047 28.9699 27.7573Z" fill="current"/>
<defs>
<linearGradient id="paint0_linear_190_133" x1="16" y1="22" x2="16" y2="28" gradientUnits="userSpaceOnUse">
<stop stop-color="#C1C0D8" stop-opacity="0.6"/>
<stop offset="0.770833" stop-color="#C1C0D8" stop-opacity="0"/>
</linearGradient>
<linearGradient id="paint1_linear_190_133" x1="16.0453" y1="7" x2="16.0453" y2="23" gradientUnits="userSpaceOnUse">
<stop stop-color="#C1C0D8" stop-opacity="0.6"/>
<stop offset="0.770833" stop-color="#C1C0D8" stop-opacity="0"/>
</linearGradient>
</defs>
</svg>
