<svg width="32" height="32" viewBox="0 0 32 32" fill="none" xmlns="http://www.w3.org/2000/svg">
<path d="M10 11.7826V7H22V11.7826C22 13.8551 20.8 18 16 18C11.2 18 10 13.8551 10 11.7826Z" fill="url(#paint0_linear_190_384)"/>
<path d="M8 28L10 24H22L24 28H8Z" fill="url(#paint1_linear_190_384)"/>
<path d="M26 5H23V4C23 3.73478 22.8946 3.48043 22.7071 3.29289C22.5196 3.10536 22.2652 3 22 3C21.7348 3 21.4804 3.10536 21.2929 3.29289C21.1054 3.48043 21 3.73478 21 4V12C21 13.3261 20.4732 14.5979 19.5355 15.5355C18.5979 16.4732 17.3261 17 16 17C14.6739 17 13.4021 16.4732 12.4645 15.5355C11.5268 14.5979 11 13.3261 11 12V5H18C18.2652 5 18.5196 4.89464 18.7071 4.70711C18.8946 4.51957 19 4.26522 19 4C19 3.73478 18.8946 3.48043 18.7071 3.29289C18.5196 3.10536 18.2652 3 18 3H10C9.73478 3 9.48043 3.10536 9.29289 3.29289C9.10536 3.48043 9 3.73478 9 4V5H6C5.73478 5 5.48043 5.10536 5.29289 5.29289C5.10536 5.48043 5 5.73478 5 6V10C5.00087 10.7954 5.31722 11.5579 5.87964 12.1204C6.44206 12.6828 7.20462 12.9991 8 13H9.0789C9.2391 14.1427 9.68148 15.2275 10.3661 16.1563C11.0507 17.0851 11.9559 17.8288 13 18.32V21H10C9.79018 20.9999 9.58565 21.0659 9.41545 21.1886C9.24525 21.3113 9.11802 21.4845 9.0518 21.6836L7.0518 27.6836C7.00589 27.8092 6.98563 27.9427 6.99222 28.0763C6.99881 28.2098 7.03212 28.3407 7.09017 28.4611C7.14823 28.5816 7.22985 28.6892 7.33021 28.7775C7.43057 28.8659 7.54764 28.9332 7.67448 28.9755C7.80131 29.0179 7.93535 29.0343 8.06866 29.0239C8.20197 29.0136 8.33185 28.9765 8.4506 28.9151C8.56936 28.8536 8.67458 28.769 8.76005 28.6662C8.84552 28.5633 8.9095 28.4444 8.9482 28.3164L10.7207 23H21.2793L22.6123 27H12C11.7348 27 11.4804 27.1054 11.2929 27.2929C11.1054 27.4804 11 27.7348 11 28C11 28.2652 11.1054 28.5196 11.2929 28.7071C11.4804 28.8946 11.7348 29 12 29H24C24.1585 29.0002 24.3148 28.9626 24.4559 28.8904C24.597 28.8182 24.7189 28.7135 24.8116 28.5849C24.9042 28.4563 24.9649 28.3074 24.9887 28.1507C25.0124 27.994 24.9986 27.8339 24.9482 27.6836L22.9482 21.6836C22.882 21.4845 22.7547 21.3113 22.5845 21.1886C22.4143 21.0659 22.2098 20.9999 22 21H19V18.32C20.0441 17.8288 20.9493 17.0851 21.6339 16.1563C22.3185 15.2275 22.7609 14.1427 22.9211 13H24C24.7954 12.9991 25.5579 12.6828 26.1204 12.1204C26.6828 11.5579 26.9991 10.7954 27 10V6C27 5.73478 26.8946 5.48043 26.7071 5.29289C26.5196 5.10536 26.2652 5 26 5ZM7 10V7H9V11H8C7.73483 10.9998 7.48057 10.8944 7.29307 10.7069C7.10557 10.5194 7.00016 10.2652 7 10V10ZM17 21H15V18.9211C15.6625 19.0263 16.3375 19.0263 17 18.9211V21ZM25 10C24.9998 10.2652 24.8944 10.5194 24.7069 10.7069C24.5194 10.8944 24.2652 10.9998 24 11H23V7H25V10Z" fill="current"/>
<defs>
<linearGradient id="paint0_linear_190_384" x1="16" y1="7" x2="16" y2="18" gradientUnits="userSpaceOnUse">
<stop stop-color="#C1C0D8" stop-opacity="0.6"/>
<stop offset="0.770833" stop-color="#C1C0D8" stop-opacity="0"/>
</linearGradient>
<linearGradient id="paint1_linear_190_384" x1="16" y1="24" x2="16" y2="28" gradientUnits="userSpaceOnUse">
<stop stop-color="#C1C0D8" stop-opacity="0.6"/>
<stop offset="0.770833" stop-color="#C1C0D8" stop-opacity="0"/>
</linearGradient>
</defs>
</svg>
