<svg width="32" height="32" viewBox="0 0 32 32" fill="none" xmlns="http://www.w3.org/2000/svg">
<path d="M6 25.5V12.5L12 10L16 12L20 9.5L26 12.5V25.5C26 27.5 24.3333 28 23.5 28H9C6.6 28 6 26.3333 6 25.5Z" fill="url(#paint0_linear_190_81)"/>
<path d="M12 7H4V10.4375L8 12L12 10.4375V7Z" fill="url(#paint1_linear_190_81)"/>
<path d="M20 7H12V10.4375L16 12L20 10.4375V7Z" fill="url(#paint2_linear_190_81)"/>
<path d="M28 7H20V10.4375L24 12L28 10.4375V7Z" fill="url(#paint3_linear_190_81)"/>
<path d="M28 3H4C3.73478 3 3.48043 3.10536 3.29289 3.29289C3.10536 3.48043 3 3.73478 3 4V8C3.00228 8.77319 3.1846 9.53522 3.53251 10.2257C3.88042 10.9162 4.38436 11.5162 5.0044 11.9781C5.0042 11.9858 5 11.9922 5 12V26C5.00021 26.7956 5.31635 27.5585 5.87891 28.1211C6.44148 28.6836 7.20442 28.9998 8 29H24C24.7956 28.9998 25.5585 28.6836 26.1211 28.1211C26.6836 27.5585 26.9998 26.7956 27 26V16C27 15.7348 26.8946 15.4804 26.7071 15.2929C26.5196 15.1054 26.2652 15 26 15C25.7348 15 25.4804 15.1054 25.2929 15.2929C25.1054 15.4804 25 15.7348 25 16V26C25 26.2652 24.8946 26.5196 24.7071 26.7071C24.5196 26.8946 24.2652 27 24 27H13V17H19V24C19 24.2652 19.1054 24.5196 19.2929 24.7071C19.4804 24.8946 19.7348 25 20 25C20.2652 25 20.5196 24.8946 20.7071 24.7071C20.8946 24.5196 21 24.2652 21 24V16C21 15.7348 20.8946 15.4804 20.7071 15.2929C20.5196 15.1054 20.2652 15 20 15H12C11.7348 15 11.4804 15.1054 11.2929 15.2929C11.1054 15.4804 11 15.7348 11 16V27H8C7.73478 27 7.48043 26.8946 7.29289 26.7071C7.10536 26.5196 7 26.2652 7 26V12.8989C7.93073 13.0897 8.89667 13.0092 9.78302 12.6671C10.6694 12.325 11.4388 11.7356 12 10.9689C12.46 11.5982 13.0619 12.1101 13.757 12.463C14.452 12.8159 15.2205 12.9998 16 12.9998C16.7795 12.9998 17.548 12.8159 18.243 12.463C18.9381 12.1101 19.54 11.5982 20 10.9689C20.623 11.8159 21.4979 12.4441 22.4996 12.7639C23.5013 13.0836 24.5784 13.0784 25.5769 12.749C26.5754 12.4196 27.4442 11.7829 28.059 10.9299C28.6738 10.077 29.0032 9.05144 29 8V4C29 3.73478 28.8946 3.48043 28.7071 3.29289C28.5196 3.10536 28.2652 3 28 3V3ZM8 11C7.20462 10.9991 6.44206 10.6828 5.87964 10.1204C5.31722 9.55794 5.00087 8.79538 5 8V5H11V8C10.9991 8.79538 10.6828 9.55794 10.1204 10.1204C9.55794 10.6828 8.79538 10.9991 8 11V11ZM16 11C15.2046 10.9991 14.4421 10.6828 13.8796 10.1204C13.3172 9.55794 13.0009 8.79538 13 8V5H19V8C18.9991 8.79538 18.6828 9.55794 18.1204 10.1204C17.5579 10.6828 16.7954 10.9991 16 11V11ZM27 8C27 8.79565 26.6839 9.55871 26.1213 10.1213C25.5587 10.6839 24.7956 11 24 11C23.2044 11 22.4413 10.6839 21.8787 10.1213C21.3161 9.55871 21 8.79565 21 8V5H27V8Z" fill="current"/>
<defs>
<linearGradient id="paint0_linear_190_81" x1="16" y1="9.5" x2="16" y2="28" gradientUnits="userSpaceOnUse">
<stop stop-color="#C1C0D8" stop-opacity="0.6"/>
<stop offset="0.770833" stop-color="#C1C0D8" stop-opacity="0"/>
</linearGradient>
<linearGradient id="paint1_linear_190_81" x1="8" y1="7" x2="8" y2="12" gradientUnits="userSpaceOnUse">
<stop stop-color="#C1C0D8" stop-opacity="0.6"/>
<stop offset="0.770833" stop-color="#C1C0D8" stop-opacity="0"/>
</linearGradient>
<linearGradient id="paint2_linear_190_81" x1="16" y1="7" x2="16" y2="12" gradientUnits="userSpaceOnUse">
<stop stop-color="#C1C0D8" stop-opacity="0.6"/>
<stop offset="0.770833" stop-color="#C1C0D8" stop-opacity="0"/>
</linearGradient>
<linearGradient id="paint3_linear_190_81" x1="24" y1="7" x2="24" y2="12" gradientUnits="userSpaceOnUse">
<stop stop-color="#C1C0D8" stop-opacity="0.6"/>
<stop offset="0.770833" stop-color="#C1C0D8" stop-opacity="0"/>
</linearGradient>
</defs>
</svg>
