<svg width="32" height="32" viewBox="0 0 32 32" fill="none" xmlns="http://www.w3.org/2000/svg">
<path opacity="0.4" d="M17.3277 20.7186L17.3203 20.7197L17.3129 20.721C16.8895 20.7958 16.4519 20.8334 15.9998 20.8334C15.5477 20.8334 15.1102 20.7958 14.6867 20.721L14.6794 20.7197L14.6719 20.7186C12.1641 20.3532 10.0063 18.9292 8.64174 16.9082C7.70898 15.5086 7.1665 13.8318 7.1665 12.0001C7.1665 7.11622 11.116 3.16675 15.9998 3.16675C20.8837 3.16675 24.8332 7.11622 24.8332 12.0001C24.8332 13.8318 24.2907 15.5086 23.358 16.9082C21.9934 18.9291 19.8356 20.3532 17.3277 20.7186Z" fill="#FB2F8A" stroke="#FB2F8A"/>
<path d="M22.7371 28.3117L17.0547 21.7835C17.1973 21.766 17.3389 21.745 17.4794 21.7203C20.0667 21.3413 22.3145 19.9525 23.8354 17.9691L28.6197 22.7535L28.6197 22.7535L28.623 22.7567C29.0687 23.1943 28.8579 23.9886 28.218 24.1401L26.0183 24.66L26.0151 24.6608C25.3511 24.8223 24.8108 25.331 24.6591 26.0221L24.1935 27.9775L24.1935 27.9778C24.0357 28.6421 23.1865 28.8458 22.7426 28.3181L22.7426 28.318L22.7371 28.3117ZM14.5205 21.7203C14.6613 21.7451 14.8033 21.7661 14.9463 21.7836L9.26251 28.3253L9.26246 28.3253L9.25733 28.3314C8.81339 28.8591 7.9642 28.6554 7.80641 27.9911L7.80634 27.9908L7.33968 26.0308L7.33911 26.0284C7.17623 25.3588 6.6505 24.8234 5.97863 24.6727L3.78184 24.1534C3.14757 24.0032 2.92494 23.2087 3.38016 22.7535L8.16453 17.9691C9.68536 19.9525 11.9332 21.3413 14.5205 21.7203Z" fill="#FB2F8A" stroke="#FB2F8A"/>
<path d="M16.7731 7.97325L17.5598 9.54658C17.6665 9.75991 17.9465 9.97325 18.1998 10.0132L19.6265 10.2532C20.5331 10.3999 20.7465 11.0666 20.0931 11.7199L18.9865 12.8266C18.7998 13.0132 18.6931 13.3733 18.7598 13.6399L19.0798 15.0132C19.3331 16.0932 18.7598 16.5199 17.7998 15.9466L16.4665 15.1599C16.2265 15.0132 15.8265 15.0132 15.5865 15.1599L14.2531 15.9466C13.2931 16.5066 12.7198 16.0932 12.9731 15.0132L13.2931 13.6399C13.3465 13.3866 13.2531 13.0132 13.0665 12.8266L11.9598 11.7199C11.3065 11.0666 11.5198 10.4132 12.4265 10.2532L13.8531 10.0132C14.0931 9.97325 14.3731 9.75991 14.4798 9.54658L15.2665 7.97325C15.6531 7.11992 16.3465 7.11992 16.7731 7.97325Z" fill="#FB2F8A"/>
</svg>
