<svg width="20" height="20" viewBox="0 0 20 20" fill="none" xmlns="http://www.w3.org/2000/svg">
<path d="M9.99 0C4.472 0 0 4.473 0 9.99C0 14.222 2.633 17.84 6.35 19.296C6.262 18.506 6.184 17.29 6.384 16.428C6.566 15.648 7.556 11.462 7.556 11.462C7.556 11.462 7.257 10.863 7.257 9.978C7.257 8.59 8.062 7.553 9.065 7.553C9.918 7.553 10.329 8.193 10.329 8.96C10.329 9.818 9.783 11.099 9.502 12.287C9.267 13.281 10.001 14.092 10.981 14.092C12.756 14.092 14.122 12.22 14.122 9.517C14.122 7.125 12.403 5.453 9.949 5.453C7.106 5.453 5.437 7.585 5.437 9.788C5.437 10.646 5.768 11.567 6.181 12.068C6.2161 12.1057 6.24088 12.1519 6.25297 12.202C6.26505 12.2521 6.26403 12.3044 6.25 12.354C6.174 12.669 6.005 13.348 5.973 13.487C5.929 13.67 5.828 13.709 5.638 13.621C4.391 13.04 3.611 11.216 3.611 9.75C3.611 6.599 5.9 3.705 10.212 3.705C13.678 3.705 16.371 6.174 16.371 9.475C16.371 12.919 14.2 15.688 11.187 15.688C10.174 15.688 9.223 15.163 8.897 14.542L8.274 16.916C8.049 17.784 7.44 18.872 7.033 19.536C7.99111 19.8318 8.98827 19.9818 9.991 19.981C15.508 19.981 19.981 15.508 19.981 9.991C19.981 4.474 15.507 0 9.99 0Z" fill="current"/>
</svg>
