<svg width="32" height="32" viewBox="0 0 32 32" fill="none" xmlns="http://www.w3.org/2000/svg">
<path d="M24 23C23.4067 23 22.8266 23.1759 22.3333 23.5056C21.8399 23.8352 21.4554 24.3038 21.2284 24.8519C21.0013 25.4001 20.9419 26.0033 21.0576 26.5853C21.1734 27.1672 21.4591 27.7018 21.8787 28.1213C22.2982 28.5409 22.8328 28.8266 23.4147 28.9423C23.9967 29.0581 24.5999 28.9987 25.148 28.7716C25.6962 28.5446 26.1648 28.1601 26.4944 27.6667C26.824 27.1734 27 26.5933 27 26C26.9991 25.2046 26.6828 24.4421 26.1204 23.8796C25.5579 23.3172 24.7954 23.0009 24 23V23ZM24 27C23.8022 27 23.6089 26.9413 23.4444 26.8315C23.28 26.7216 23.1518 26.5654 23.0761 26.3827C23.0004 26.2 22.9806 25.9989 23.0192 25.8049C23.0578 25.6109 23.153 25.4327 23.2929 25.2929C23.4327 25.153 23.6109 25.0578 23.8049 25.0192C23.9989 24.9806 24.2 25.0004 24.3827 25.0761C24.5654 25.1518 24.7216 25.28 24.8315 25.4444C24.9413 25.6089 25 25.8022 25 26C24.9997 26.2651 24.8942 26.5193 24.7067 26.7067C24.5193 26.8942 24.2651 26.9997 24 27V27Z" fill="current"/>
<path d="M27.5 11H8.5L12.5 20H26L27.5 11Z" fill="url(#paint0_linear_190_3)"/>
<path d="M18 23H10C9.73478 23 9.48043 22.8946 9.29289 22.7071C9.10536 22.5196 9 22.2652 9 22C9 21.7348 9.10536 21.4804 9.29289 21.2929C9.48043 21.1054 9.73478 21 10 21H26C26.2367 21 26.4657 20.916 26.6463 20.7631C26.8269 20.6101 26.9473 20.398 26.9863 20.1646L28.9863 8.1646C29.0102 8.02134 29.0026 7.87458 28.9641 7.73455C28.9255 7.59452 28.8569 7.46456 28.763 7.35373C28.6692 7.24289 28.5523 7.15383 28.4205 7.09274C28.2887 7.03166 28.1452 7.00001 28 7H12C11.7348 7 11.4804 7.10536 11.2929 7.29289C11.1054 7.48043 11 7.73478 11 8C11 8.26522 11.1054 8.51957 11.2929 8.70711C11.4804 8.89464 11.7348 9 12 9H26.8193L25.1528 19H12.6928L6.9365 3.6489C6.86496 3.45831 6.73697 3.29407 6.56964 3.17812C6.4023 3.06218 6.20358 3.00004 6 3H4C3.73478 3 3.48043 3.10536 3.29289 3.29289C3.10536 3.48043 3 3.73478 3 4C3 4.26522 3.10536 4.51957 3.29289 4.70711C3.48043 4.89464 3.73478 5 4 5H5.3071L10.5571 19H10C9.27135 18.9948 8.56589 19.2559 8.01616 19.7341C7.46642 20.2124 7.11026 20.875 7.01459 21.5973C6.91891 22.3197 7.09031 23.0521 7.49658 23.657C7.90285 24.2619 8.51603 24.6976 9.2209 24.8823C9.03292 25.334 8.95808 25.8248 9.00287 26.312C9.04766 26.7991 9.21072 27.268 9.4779 27.6779C9.74508 28.0878 10.1083 28.4262 10.536 28.6638C10.9637 28.9013 11.4429 29.0309 11.932 29.0412C12.4212 29.0515 12.9054 28.9422 13.3427 28.7228C13.78 28.5034 14.1572 28.1806 14.4414 27.7823C14.7255 27.3841 14.9082 26.9224 14.9734 26.4376C15.0387 25.9527 14.9845 25.4592 14.8157 25H18C18.2652 25 18.5196 24.8946 18.7071 24.7071C18.8946 24.5196 19 24.2652 19 24C19 23.7348 18.8946 23.4804 18.7071 23.2929C18.5196 23.1054 18.2652 23 18 23ZM13 26C13 26.1978 12.9414 26.3911 12.8315 26.5556C12.7216 26.72 12.5654 26.8482 12.3827 26.9239C12.2 26.9996 11.9989 27.0194 11.8049 26.9808C11.6109 26.9422 11.4327 26.847 11.2929 26.7071C11.153 26.5673 11.0578 26.3891 11.0192 26.1951C10.9806 26.0011 11.0004 25.8 11.0761 25.6173C11.1518 25.4346 11.28 25.2784 11.4444 25.1685C11.6089 25.0586 11.8022 25 12 25C12.2651 25.0003 12.5193 25.1058 12.7067 25.2933C12.8942 25.4807 12.9997 25.7349 13 26Z" fill="current"/>
<defs>
<linearGradient id="paint0_linear_190_3" x1="18" y1="11" x2="18" y2="20" gradientUnits="userSpaceOnUse">
<stop stop-color="#C1C0D8" stop-opacity="0.6"/>
<stop offset="0.770833" stop-color="#C1C0D8" stop-opacity="0"/>
</linearGradient>
</defs>
</svg>
