<svg width="32" height="32" viewBox="0 0 32 32" fill="none" xmlns="http://www.w3.org/2000/svg">
<ellipse cx="16" cy="11.5" rx="6" ry="4.5" fill="url(#paint0_linear_190_97)"/>
<path d="M6 24.1587C6 20.2077 7.16667 18.4384 8 17.5238C8 17.5238 9 19.5492 16 19.5492C23 19.5492 23.5 17.5237 23.5 17.5237C25.3922 18.8407 25.9102 22.1466 26 24.1587C25.8333 25.4391 23.7 28 16.5 28C9.3 28 6.5 25.4391 6 24.1587Z" fill="url(#paint1_linear_190_97)"/>
<path d="M23.7374 16.1813C23.6446 16.0864 23.5338 16.011 23.4115 15.9594C23.2893 15.9078 23.158 15.881 23.0253 15.8806C22.8926 15.8803 22.7611 15.9063 22.6386 15.9573C22.516 16.0082 22.4049 16.0831 22.3115 16.1774C22.2182 16.2718 22.1446 16.3838 22.095 16.5069C22.0454 16.6299 22.0208 16.7617 22.0226 16.8944C22.0245 17.0271 22.0527 17.1581 22.1056 17.2798C22.1586 17.4014 22.2353 17.5114 22.3312 17.6031C23.1796 18.4379 23.8527 19.4338 24.311 20.5323C24.7693 21.6309 25.0036 22.8098 25.0001 24.0001C25.0001 25.2232 21.4942 27.0001 16.0001 27.0001C10.5059 27.0001 7.00005 25.2223 7.00005 23.9981C6.99668 22.816 7.22782 21.645 7.68009 20.5528C8.13235 19.4607 8.79676 18.4691 9.63485 17.6354C9.72964 17.543 9.80514 17.4327 9.85696 17.3108C9.90878 17.189 9.9359 17.0581 9.93674 16.9257C9.93758 16.7933 9.91212 16.6621 9.86185 16.5396C9.81157 16.4172 9.73748 16.3059 9.64387 16.2123C9.55025 16.1187 9.43898 16.0446 9.31651 15.9943C9.19404 15.944 9.06281 15.9186 8.93042 15.9194C8.79804 15.9203 8.66714 15.9474 8.54531 15.9992C8.42349 16.051 8.31317 16.1265 8.22075 16.2213C7.19617 17.2405 6.38395 18.4528 5.83111 19.7881C5.27827 21.1233 4.9958 22.5549 5.00005 24.0001C5.00005 27.2477 10.667 29.0001 16.0001 29.0001C21.3331 29.0001 27.0001 27.2477 27.0001 24.0001C27.0045 22.5452 26.7182 21.1041 26.1579 19.7614C25.5976 18.4187 24.7746 17.2015 23.7374 16.1813Z" fill="current"/>
<path d="M16 17C17.3845 17 18.7378 16.5895 19.889 15.8203C21.0401 15.0511 21.9373 13.9579 22.4672 12.6788C22.997 11.3997 23.1356 9.99224 22.8655 8.63437C22.5954 7.2765 21.9287 6.02922 20.9497 5.05025C19.9708 4.07129 18.7235 3.4046 17.3656 3.13451C16.0078 2.86441 14.6003 3.00303 13.3212 3.53285C12.0421 4.06266 10.9489 4.95987 10.1797 6.11101C9.41054 7.26215 9 8.61553 9 10C9.00214 11.8559 9.74033 13.6351 11.0526 14.9474C12.3649 16.2597 14.1441 16.9979 16 17ZM16 5C16.9889 5 17.9556 5.29325 18.7779 5.84265C19.6001 6.39206 20.241 7.17295 20.6194 8.08658C20.9978 9.00021 21.0969 10.0055 20.9039 10.9755C20.711 11.9454 20.2348 12.8363 19.5355 13.5355C18.8363 14.2348 17.9454 14.711 16.9755 14.9039C16.0055 15.0969 15.0002 14.9978 14.0866 14.6194C13.173 14.241 12.3921 13.6001 11.8427 12.7779C11.2932 11.9556 11 10.9889 11 10C11.0016 8.6744 11.5288 7.40354 12.4662 6.46619C13.4035 5.52885 14.6744 5.00156 16 5Z" fill="current"/>
<defs>
<linearGradient id="paint0_linear_190_97" x1="16" y1="7" x2="16" y2="16" gradientUnits="userSpaceOnUse">
<stop stop-color="#C1C0D8" stop-opacity="0.6"/>
<stop offset="0.770833" stop-color="#C1C0D8" stop-opacity="0"/>
</linearGradient>
<linearGradient id="paint1_linear_190_97" x1="16" y1="17.5237" x2="16" y2="28" gradientUnits="userSpaceOnUse">
<stop stop-color="#C1C0D8" stop-opacity="0.6"/>
<stop offset="0.770833" stop-color="#C1C0D8" stop-opacity="0"/>
</linearGradient>
</defs>
</svg>
